# xmcd
#
# Track frame offsets:
#	150
#	6410
#	15299
#	27824
#	44047
#	55533
#	61275
#	70950
#	84589
#	95833
#	117099
#	136738
#	146991
#	158959
#	172005
#	183834
#	201952
#	211729
#	223585
#	233996
#	250603
#
# Disc length: 3587 seconds
#
# Revision: 0
# Processed by: cddbd v1.5.2PL0 Copyright (c) Steve Scherf et al.
# Submitted via: EasyCDDAExtractor 2011.3.0.0
#
DISCID=280e0115
DTITLE=Kizhi ensemble Holy Patriarchal town house - O Land Of Russia
DYEAR=2007
DGENRE=Vocal
TTITLE0=Piidite poklonimsya
TTITLE1=Dostojno est`
TTITLE2=Zemle russkaya
TTITLE3=Svyatyj Bozhe
TTITLE4=Razbojnika blagorazumnago
TTITLE5=Xristos Voskrese
TTITLE6=Angel vopiyashe
TTITLE7=Lyubov` svyataya
TTITLE8=Pokoyannaya molitva
TTITLE9=12 razbojnikov
TTITLE10=Uzh, vy golubi
TTITLE11=Vechenij zvon
TTITLE12=Xodyut koni
TTITLE13=Podmoskovnye vechera
TTITLE14=Ne zhaleyu, ne zovu, ne plachu
TTITLE15=Otgovorila rosha zolotaya
TTITLE16=Kolokol`chik
TTITLE17=Ah, ty step` shirokaya
TTITLE18=Vdol` po Piterskoj
TTITLE19=Ej, uhnem
TTITLE20=Kon`
EXTD=
EXTT0=
EXTT1=
EXTT2=
EXTT3=
EXTT4=
EXTT5=
EXTT6=
EXTT7=
EXTT8=
EXTT9=
EXTT10=
EXTT11=
EXTT12=
EXTT13=
EXTT14=
EXTT15=
EXTT16=
EXTT17=
EXTT18=
EXTT19=
EXTT20=
PLAYORDER=
